STARTFONT 2.1
FONT -Misc-Fixed-Medium-R-Normal--20-200-75-75-C-100-ISO10646-1
SIYE 20 75 75
FONTBOUNDINGBOX 10 20 0 -4
STARTPRPERTIES 22
FONTNAME_REGISTRY ""
FOUNDRY "Misc"
FAMILY_NAME "Fixed"
WEIGHT_NAME "Medium"
SLANT "R"
SETWIDTH_NAME "Normal"
ADD_STYLE_NAME ""
PIXEL_SIZE 20
POINT_SIZE 200
RESOLUTION_X 75
RESOLUTION_Y 75
SPACING "C"
AVERAGE_WIDTH 100
CHARSET_REGISTRY "ISO10646"
CHARSET_ENCODING "1"
DEFAULT_CHAR 0
FONT_DESCENT 4
FONT_ASCENT 16
X_HEIGHT 8
CAP_HEIGHT 13
COPYRIGHT "enjoy"
_GBDFED_INFO "edited with ..."
ENDPROPERTIES
CHARS 5205
STARTCHAR zero
ENCODING 48
SWIDTH 480 0
DWIDTH 16 0
BBX 15 2 0 0
BITMAP
1FF8
1FF8
ENDCHAR
STARTCHAR one
ENCODING 49
SWIDTH 480 0
DWIDTH 16 0
BBX 2 1 0 0
BITMAP
60
ENDCHAR
STARTCHAR two
ENCODING 50
SWIDTH 480 0
DWIDTH 16 0
BBX 2 2 0 0
BITMAP
60
60
ENDCHAR
ENDFONT
